#N canvas 827 239 527 327 12;
#X obj 219 119 adc~;
#X obj 219 339 dac~ 1 2 3;
#X obj 219 199 +~, f 6;
#X obj 299 199 -~, f 5;
#X obj 219 239 *~ 0.707;
#X obj 299 239 *~ 0.707;
#X obj 379 239 *~ -0.707;
#X connect 0 0 2 0 32.................d.........fG.........vC....;
#X connect 0 0 3 0 32.................T.....E....E....PA...vC....;
#X connect 0 1 2 1 32.................d....D....fG....A....vC....;
#X connect 0 1 3 1 32.................T....3D....E....NA...vC....;
#X connect 2 0 4 0 empty;
#X connect 3 0 5 0 empty;
#X connect 3 0 6 0 empty;
#X connect 4 0 1 1 32.................b....fA....G....X.....E....;
#X connect 5 0 1 0 32.................w....D6+++eL....w9+++CE....;
#X connect 6 0 1 2 32.................5....H4+++uN....R9+++CE....;
